<svg width="22" height="28" viewBox="0 0 22 28" fill="none" xmlns="http://www.w3.org/2000/svg">
<path d="M19.25 5.75H16.5C16.5 2.71125 14.0387 0.25 11 0.25C7.96125 0.25 5.5 2.71125 5.5 5.75H2.75C1.2375 5.75 0 6.9875 0 8.5V25C0 26.5125 1.2375 27.75 2.75 27.75H19.25C20.7625 27.75 22 26.5125 22 25V8.5C22 6.9875 20.7625 5.75 19.25 5.75ZM11 3C12.5125 3 13.75 4.2375 13.75 5.75H8.25C8.25 4.2375 9.4875 3 11 3ZM19.25 25H2.75V8.5H5.5V11.25C5.5 12.0063 6.11875 12.625 6.875 12.625C7.63125 12.625 8.25 12.0063 8.25 11.25V8.5H13.75V11.25C13.75 12.0063 14.3687 12.625 15.125 12.625C15.8813 12.625 16.5 12.0063 16.5 11.25V8.5H19.25V25Z" fill="#4D443E"/>
</svg>
