<svg width="182" height="64" viewBox="0 0 182 64" fill="none" xmlns="http://www.w3.org/2000/svg">
<path d="M8.208 45V24.552H0.144V19.8H22.104V24.552H14.04V45H8.208ZM32.4892 45.288C30.2812 45.288 28.3372 44.856 26.6572 43.992C25.0012 43.128 23.7172 41.952 22.8052 40.464C21.8932 38.952 21.4372 37.236 21.4372 35.316C21.4372 33.372 21.8812 31.656 22.7692 30.168C23.6812 28.656 24.9172 27.48 26.4772 26.64C28.0372 25.776 29.8012 25.344 31.7692 25.344C33.6652 25.344 35.3692 25.752 36.8812 26.568C38.4172 27.36 39.6292 28.512 40.5172 30.024C41.4052 31.512 41.8492 33.3 41.8492 35.388C41.8492 35.604 41.8372 35.856 41.8132 36.144C41.7892 36.408 41.7652 36.66 41.7412 36.9H26.0092V33.624H38.7892L36.6292 34.596C36.6292 33.588 36.4252 32.712 36.0172 31.968C35.6092 31.224 35.0452 30.648 34.3252 30.24C33.6052 29.808 32.7652 29.592 31.8052 29.592C30.8452 29.592 29.9932 29.808 29.2492 30.24C28.5292 30.648 27.9652 31.236 27.5572 32.004C27.1492 32.748 26.9452 33.636 26.9452 34.668V35.532C26.9452 36.588 27.1732 37.524 27.6292 38.34C28.1092 39.132 28.7692 39.744 29.6092 40.176C30.4732 40.584 31.4812 40.788 32.6332 40.788C33.6652 40.788 34.5652 40.632 35.3332 40.32C36.1252 40.008 36.8452 39.54 37.4932 38.916L40.4812 42.156C39.5932 43.164 38.4772 43.944 37.1332 44.496C35.7892 45.024 34.2412 45.288 32.4892 45.288ZM56.9408 45V41.22L56.5808 40.392V33.624C56.5808 32.424 56.2088 31.488 55.4648 30.816C54.7448 30.144 53.6288 29.808 52.1168 29.808C51.0848 29.808 50.0648 29.976 49.0568 30.312C48.0728 30.624 47.2328 31.056 46.5368 31.608L44.5208 27.684C45.5768 26.94 46.8488 26.364 48.3368 25.956C49.8248 25.548 51.3368 25.344 52.8728 25.344C55.8248 25.344 58.1168 26.04 59.7488 27.432C61.3808 28.824 62.1968 30.996 62.1968 33.948V45H56.9408ZM51.0368 45.288C49.5248 45.288 48.2288 45.036 47.1488 44.532C46.0688 44.004 45.2408 43.296 44.6648 42.408C44.0888 41.52 43.8008 40.524 43.8008 39.42C43.8008 38.268 44.0768 37.26 44.6288 36.396C45.2048 35.532 46.1048 34.86 47.3288 34.38C48.5528 33.876 50.1488 33.624 52.1168 33.624H57.2648V36.9H52.7288C51.4088 36.9 50.4968 37.116 49.9928 37.548C49.5128 37.98 49.2728 38.52 49.2728 39.168C49.2728 39.888 49.5488 40.464 50.1008 40.896C50.6768 41.304 51.4568 41.508 52.4408 41.508C53.3768 41.508 54.2168 41.292 54.9608 40.86C55.7048 40.404 56.2448 39.744 56.5808 38.88L57.4448 41.472C57.0368 42.72 56.2928 43.668 55.2128 44.316C54.1328 44.964 52.7408 45.288 51.0368 45.288ZM72.8955 45V24.552H64.8315V19.8H86.7915V24.552H78.7275V45H72.8955ZM97.1767 45.288C94.9687 45.288 93.0247 44.856 91.3447 43.992C89.6887 43.128 88.4047 41.952 87.4927 40.464C86.5807 38.952 86.1247 37.236 86.1247 35.316C86.1247 33.372 86.5687 31.656 87.4567 30.168C88.3687 28.656 89.6047 27.48 91.1647 26.64C92.7247 25.776 94.4887 25.344 96.4567 25.344C98.3527 25.344 100.057 25.752 101.569 26.568C103.105 27.36 104.317 28.512 105.205 30.024C106.093 31.512 106.537 33.3 106.537 35.388C106.537 35.604 106.525 35.856 106.501 36.144C106.477 36.408 106.453 36.66 106.429 36.9H90.6967V33.624H103.477L101.317 34.596C101.317 33.588 101.113 32.712 100.705 31.968C100.297 31.224 99.7327 30.648 99.0127 30.24C98.2927 29.808 97.4527 29.592 96.4927 29.592C95.5327 29.592 94.6807 29.808 93.9367 30.24C93.2167 30.648 92.6527 31.236 92.2447 32.004C91.8367 32.748 91.6327 33.636 91.6327 34.668V35.532C91.6327 36.588 91.8607 37.524 92.3167 38.34C92.7967 39.132 93.4567 39.744 94.2967 40.176C95.1607 40.584 96.1687 40.788 97.3207 40.788C98.3527 40.788 99.2527 40.632 100.021 40.32C100.813 40.008 101.533 39.54 102.181 38.916L105.169 42.156C104.281 43.164 103.165 43.944 101.821 44.496C100.477 45.024 98.9287 45.288 97.1767 45.288ZM110.276 45V25.632H115.64V31.104L114.884 29.52C115.46 28.152 116.384 27.12 117.656 26.424C118.928 25.704 120.476 25.344 122.3 25.344V30.528C122.06 30.504 121.844 30.492 121.652 30.492C121.46 30.468 121.256 30.456 121.04 30.456C119.504 30.456 118.256 30.9 117.296 31.788C116.36 32.652 115.892 34.008 115.892 35.856V45H110.276Z" fill="white"/>
</svg>
