<svg width="30" height="30" viewBox="0 0 30 30" fill="none" xmlns="http://www.w3.org/2000/svg">
<path fill-rule="evenodd" clip-rule="evenodd" d="M29.2442 25.7755C28.6083 27.3736 27.3771 28.6047 25.7708 29.2489C23.7078 30.0671 19.2156 30.0216 16.3017 29.992C15.8183 29.9871 15.3783 29.9827 15 29.9827C14.629 29.9827 14.1984 29.9868 13.7256 29.9914C10.811 30.0193 6.29172 30.0627 4.22918 29.2489C2.63108 28.6129 1.3999 27.3817 0.755772 25.7755C-0.0624396 23.7125 -0.0169254 19.2202 0.0125974 16.3063C0.0174956 15.8229 0.0219536 15.3829 0.0219536 15.0046C0.0219536 14.6336 0.0178234 14.203 0.0132881 13.7302C-0.0146694 10.8156 -0.0580194 6.29636 0.755772 4.23382C1.39175 2.63572 2.62293 1.40454 4.22918 0.760411C6.29219 -0.057801 10.7844 -0.0122867 13.6983 0.017236C14.1817 0.0221343 14.6217 0.0265923 15 0.0265923C15.371 0.0265923 15.8016 0.022462 16.2744 0.0179268C19.189 -0.0100307 23.7083 -0.0533808 25.7708 0.760411C27.3689 1.39639 28.6001 2.62757 29.2442 4.23382C30.0624 6.29683 30.0169 10.7891 29.9874 13.7029C29.9825 14.1864 29.978 14.6264 29.978 15.0046C29.978 15.3119 29.981 15.66 29.9847 16.0391C29.9856 16.1266 29.9865 16.2158 29.9874 16.3065C30.0169 19.2219 30.0625 23.7194 29.2442 25.7755ZM5.63159 15.0046C5.63159 9.81899 9.81435 5.63623 15 5.63623C20.1856 5.63623 24.3684 9.81899 24.3684 15.0046C24.3684 20.1903 20.1856 24.3731 15 24.3731C9.81435 24.3731 5.63159 20.1903 5.63159 15.0046ZM24.7516 7.43816C25.9584 7.43816 26.9368 6.46789 26.9368 5.25301C26.9368 4.04629 25.9584 3.06786 24.7516 3.06786C23.5449 3.06786 22.5665 4.04629 22.5665 5.25301C22.5665 6.45973 23.5368 7.43816 24.7516 7.43816Z" fill="white"/>
<path d="M15 21.0953C11.6489 21.0953 8.90931 18.3639 8.90931 15.0046C8.90931 11.6454 11.6407 8.91395 15 8.91395C18.3593 8.91395 21.0907 11.6454 21.0907 15.0046C21.0907 18.3639 18.3511 21.0953 15 21.0953Z" fill="white"/>
</svg>
