<svg width="18" height="30" viewBox="0 0 18 30" fill="none" xmlns="http://www.w3.org/2000/svg">
<path d="M15.7246 19.5642C14.1232 20.5834 11.9198 20.9876 10.4645 21.1399L11.686 22.3466L16.1455 26.8159C17.7761 28.4911 15.1227 31.1095 13.4745 29.4928C12.3581 28.3564 10.7216 26.7163 9.01499 25.0059L4.55553 29.4869C2.90734 31.0977 0.253867 28.456 1.90206 26.81C3.03592 25.6737 4.65489 24.0335 6.36152 22.3407L7.56552 21.134C6.12774 20.9818 3.88924 20.601 2.27027 19.5584C0.364915 18.3283 -0.470869 17.6078 0.265556 16.1024C0.69806 15.2472 1.88452 14.5267 3.45673 15.7685C3.45673 15.7685 5.57834 17.4614 9.00331 17.4614C12.4283 17.4614 14.5499 15.7685 14.5499 15.7685C16.1221 14.5326 17.3027 15.2472 17.7411 16.1024C18.4658 17.6078 17.63 18.3283 15.7246 19.5642ZM1.41695 7.59724C1.41695 3.39738 4.82438 0 8.99746 0C13.1705 0 16.578 3.39738 16.578 7.59724C16.578 11.7795 13.1705 15.1769 8.99746 15.1769C4.82438 15.1769 1.41695 11.7795 1.41695 7.59724ZM5.27442 7.59724C5.27442 9.65324 6.94599 11.3285 8.99746 11.3285C11.0489 11.3285 12.7205 9.65324 12.7205 7.59724C12.7205 5.52367 11.0489 3.84841 8.99746 3.84841C6.94599 3.84841 5.27442 5.52367 5.27442 7.59724Z" fill="white"/>
</svg>
