<svg width="20" height="24" viewBox="0 0 20 24" fill="none" xmlns="http://www.w3.org/2000/svg">
<path d="M0 14.5C0 12.3125 0.520833 10.3646 1.5625 8.65625C2.60417 6.94792 3.75 5.51042 5 4.34375C6.25 3.17708 7.39583 2.28625 8.4375 1.67125L10 0.75V4.875C10 5.64583 10.2604 6.255 10.7812 6.7025C11.3021 7.15083 11.8854 7.375 12.5312 7.375C12.8854 7.375 13.2242 7.30208 13.5475 7.15625C13.87 7.01042 14.1667 6.77083 14.4375 6.4375L15 5.75C16.5 6.625 17.7083 7.83833 18.625 9.39C19.5417 10.9425 20 12.6458 20 14.5C20 16.3333 19.5521 18.005 18.6562 19.515C17.7604 21.0258 16.5833 22.2188 15.125 23.0938C15.4792 22.5938 15.7554 22.0467 15.9538 21.4525C16.1513 20.8592 16.25 20.2292 16.25 19.5625C16.25 18.7292 16.0938 17.9429 15.7812 17.2038C15.4688 16.4638 15.0208 15.8021 14.4375 15.2188L10 10.875L5.59375 15.2188C4.98958 15.8229 4.53125 16.4896 4.21875 17.2188C3.90625 17.9479 3.75 18.7292 3.75 19.5625C3.75 20.2292 3.84917 20.8592 4.0475 21.4525C4.245 22.0467 4.52083 22.5938 4.875 23.0938C3.41667 22.2188 2.23958 21.0258 1.34375 19.515C0.447916 18.005 0 16.3333 0 14.5ZM10 14.375L12.6562 16.9688C13.0104 17.3229 13.2812 17.7188 13.4688 18.1562C13.6562 18.5938 13.75 19.0625 13.75 19.5625C13.75 20.5833 13.3854 21.4529 12.6562 22.1712C11.9271 22.8904 11.0417 23.25 10 23.25C8.95833 23.25 8.07292 22.8904 7.34375 22.1712C6.61458 21.4529 6.25 20.5833 6.25 19.5625C6.25 19.0833 6.34375 18.62 6.53125 18.1725C6.71875 17.7242 6.98958 17.3229 7.34375 16.9688L10 14.375Z" fill="#73121D"/>
</svg>
