<svg width="123" height="27" viewBox="0 0 123 27" fill="none" xmlns="http://www.w3.org/2000/svg">
<path d="M8.208 26V5.552H0.144V0.799998H22.104V5.552H14.04V26H8.208ZM32.4892 26.288C30.2812 26.288 28.3372 25.856 26.6572 24.992C25.0012 24.128 23.7172 22.952 22.8052 21.464C21.8932 19.952 21.4372 18.236 21.4372 16.316C21.4372 14.372 21.8812 12.656 22.7692 11.168C23.6812 9.656 24.9172 8.48 26.4772 7.64C28.0372 6.776 29.8012 6.344 31.7692 6.344C33.6652 6.344 35.3692 6.752 36.8812 7.568C38.4172 8.36 39.6292 9.512 40.5172 11.024C41.4052 12.512 41.8492 14.3 41.8492 16.388C41.8492 16.604 41.8372 16.856 41.8132 17.144C41.7892 17.408 41.7652 17.66 41.7412 17.9H26.0092V14.624H38.7892L36.6292 15.596C36.6292 14.588 36.4252 13.712 36.0172 12.968C35.6092 12.224 35.0452 11.648 34.3252 11.24C33.6052 10.808 32.7652 10.592 31.8052 10.592C30.8452 10.592 29.9932 10.808 29.2492 11.24C28.5292 11.648 27.9652 12.236 27.5572 13.004C27.1492 13.748 26.9452 14.636 26.9452 15.668V16.532C26.9452 17.588 27.1732 18.524 27.6292 19.34C28.1092 20.132 28.7692 20.744 29.6092 21.176C30.4732 21.584 31.4812 21.788 32.6332 21.788C33.6652 21.788 34.5652 21.632 35.3332 21.32C36.1252 21.008 36.8452 20.54 37.4932 19.916L40.4812 23.156C39.5932 24.164 38.4772 24.944 37.1332 25.496C35.7892 26.024 34.2412 26.288 32.4892 26.288ZM56.9408 26V22.22L56.5808 21.392V14.624C56.5808 13.424 56.2088 12.488 55.4648 11.816C54.7448 11.144 53.6288 10.808 52.1168 10.808C51.0848 10.808 50.0648 10.976 49.0568 11.312C48.0728 11.624 47.2328 12.056 46.5368 12.608L44.5208 8.684C45.5768 7.94 46.8488 7.364 48.3368 6.956C49.8248 6.548 51.3368 6.344 52.8728 6.344C55.8248 6.344 58.1168 7.04 59.7488 8.432C61.3808 9.824 62.1968 11.996 62.1968 14.948V26H56.9408ZM51.0368 26.288C49.5248 26.288 48.2288 26.036 47.1488 25.532C46.0688 25.004 45.2408 24.296 44.6648 23.408C44.0888 22.52 43.8008 21.524 43.8008 20.42C43.8008 19.268 44.0768 18.26 44.6288 17.396C45.2048 16.532 46.1048 15.86 47.3288 15.38C48.5528 14.876 50.1488 14.624 52.1168 14.624H57.2648V17.9H52.7288C51.4088 17.9 50.4968 18.116 49.9928 18.548C49.5128 18.98 49.2728 19.52 49.2728 20.168C49.2728 20.888 49.5488 21.464 50.1008 21.896C50.6768 22.304 51.4568 22.508 52.4408 22.508C53.3768 22.508 54.2168 22.292 54.9608 21.86C55.7048 21.404 56.2448 20.744 56.5808 19.88L57.4448 22.472C57.0368 23.72 56.2928 24.668 55.2128 25.316C54.1328 25.964 52.7408 26.288 51.0368 26.288ZM72.8955 26V5.552H64.8315V0.799998H86.7915V5.552H78.7275V26H72.8955ZM97.1767 26.288C94.9687 26.288 93.0247 25.856 91.3447 24.992C89.6887 24.128 88.4047 22.952 87.4927 21.464C86.5807 19.952 86.1247 18.236 86.1247 16.316C86.1247 14.372 86.5687 12.656 87.4567 11.168C88.3687 9.656 89.6047 8.48 91.1647 7.64C92.7247 6.776 94.4887 6.344 96.4567 6.344C98.3527 6.344 100.057 6.752 101.569 7.568C103.105 8.36 104.317 9.512 105.205 11.024C106.093 12.512 106.537 14.3 106.537 16.388C106.537 16.604 106.525 16.856 106.501 17.144C106.477 17.408 106.453 17.66 106.429 17.9H90.6967V14.624H103.477L101.317 15.596C101.317 14.588 101.113 13.712 100.705 12.968C100.297 12.224 99.7327 11.648 99.0127 11.24C98.2927 10.808 97.4527 10.592 96.4927 10.592C95.5327 10.592 94.6807 10.808 93.9367 11.24C93.2167 11.648 92.6527 12.236 92.2447 13.004C91.8367 13.748 91.6327 14.636 91.6327 15.668V16.532C91.6327 17.588 91.8607 18.524 92.3167 19.34C92.7967 20.132 93.4567 20.744 94.2967 21.176C95.1607 21.584 96.1687 21.788 97.3207 21.788C98.3527 21.788 99.2527 21.632 100.021 21.32C100.813 21.008 101.533 20.54 102.181 19.916L105.169 23.156C104.281 24.164 103.165 24.944 101.821 25.496C100.477 26.024 98.9287 26.288 97.1767 26.288ZM110.276 26V6.632H115.64V12.104L114.884 10.52C115.46 9.152 116.384 8.12 117.656 7.424C118.928 6.704 120.476 6.344 122.3 6.344V11.528C122.06 11.504 121.844 11.492 121.652 11.492C121.46 11.468 121.256 11.456 121.04 11.456C119.504 11.456 118.256 11.9 117.296 12.788C116.36 13.652 115.892 15.008 115.892 16.856V26H110.276Z" fill="#74544C"/>
</svg>
