<svg width="30" height="18" viewBox="0 0 30 18" fill="none" xmlns="http://www.w3.org/2000/svg">
<path fill-rule="evenodd" clip-rule="evenodd" d="M28.4004 1.73901C28.609 1.07808 28.4004 0.597607 27.4775 0.597607H24.409C23.635 0.597607 23.2775 1.01831 23.0689 1.46831C23.0689 1.46831 21.4904 5.31206 19.2861 7.80405C18.5713 8.52476 18.2437 8.76499 17.8564 8.76499C17.6479 8.76499 17.3795 8.52476 17.3795 7.8644V1.70796C17.3795 0.92749 17.1416 0.567139 16.4859 0.567139H11.6602C11.1832 0.567139 10.8855 0.92749 10.8855 1.28784C10.8855 2.03843 11.9877 2.2189 12.1066 4.32065V8.88745C12.1066 9.87827 11.9309 10.0593 11.5406 10.0593C10.4982 10.0593 7.96641 6.18569 6.44766 1.77183C6.15234 0.897607 5.85234 0.567139 5.07773 0.567139H1.97988C1.08633 0.567139 0.9375 0.987256 0.9375 1.43784C0.9375 2.24878 1.97988 6.33218 5.79258 11.7369C8.32441 15.4283 11.9285 17.4123 15.1752 17.4123C17.1416 17.4123 17.3795 16.9617 17.3795 16.2111V13.4185C17.3795 12.5179 17.5582 12.3679 18.184 12.3679C18.6305 12.3679 19.435 12.6076 21.252 14.3794C23.3367 16.4812 23.6941 17.4421 24.8561 17.4421H27.924C28.8176 17.4421 29.2348 16.9916 28.9963 16.1209C28.7285 15.2501 27.7154 13.9892 26.4047 12.488C25.6898 11.6478 24.6176 10.7167 24.29 10.2662C23.8436 9.66558 23.9625 9.42534 24.29 8.88511C24.2602 8.88511 28.0137 3.54019 28.4004 1.73667" fill="white"/>
</svg>
